<?xml version="1.0" standalone="no"?><!-- Generator: Gravit.io --><svg xmlns="http://www.w3.org/2000/svg" xmlns:xlink="http://www.w3.org/1999/xlink" style="isolation:isolate" viewBox="0 0 136 71" width="136" height="71"><defs><clipPath id="_clipPath_lSTMm8THmMG7ppCHpiyNlu4kPLZUCWF0"><rect width="136" height="71"/></clipPath></defs><g clip-path="url(#_clipPath_lSTMm8THmMG7ppCHpiyNlu4kPLZUCWF0)"><g id="Logo"><path d=" M 0 0.117 L 19.38 23.861 L 136 0.039 L 0 0.117 Z  M 30.449 34.271 L 65.28 73.961 L 136 0 L 30.449 34.232 L 30.449 34.271 Z " fill-rule="evenodd" fill="rgb(230,231,232)"/><path d=" M 136 0.039 L 19.38 23.861 L 26.331 69.867 L 30.449 34.271 L 136 0.039 Z " fill-rule="evenodd" fill="rgb(145,145,145)"/><path d=" M 30.449 34.271 L 26.331 69.867 L 48.922 55.364 L 30.449 34.271 Z " fill-rule="evenodd" fill="rgb(210,211,213)"/><path d=" M 19.38 23.861 L 0 0.117 L 63.844 14.777 L 19.38 23.861 Z " fill-rule="evenodd" fill="rgb(58,136,185)"/><path d=" M 19.38 23.861 L 63.844 14.777 L 64.411 23.276 L 30.449 34.271 L 26.331 69.867 L 19.38 23.861 Z " fill-rule="evenodd" fill="rgb(18,52,86)"/><path d=" M 30.449 34.271 L 74.876 19.884 L 68.793 70.296 L 65.28 74 L 30.449 34.271 Z " fill-rule="evenodd" fill="rgb(58,136,185)"/></g></g></svg>